<svg width="38" height="38" xmlns="http://www.w3.org/2000/svg" xmlns:xlink="http://www.w3.org/1999/xlink" xml:space="preserve" overflow="hidden"><g transform="translate(-733 -339)"><path d="M758.412 365.679C758.333 369.242 755.365 372.013 751.842 371.933 748.556 371.854 745.865 369.321 745.588 366.075L745.548 365.323C745.588 363.067 743.806 361.206 741.55 361.167 741.51 361.167 741.51 361.167 741.471 361.167 740.362 361.167 739.294 361.602 738.502 362.394 737.077 362.117 735.652 363.027 735.375 364.492 735.375 364.571 735.335 364.65 735.335 364.729L735.335 365.521 735.335 375.812 768.585 375.812 768.585 365.125 768.585 364.729C768.506 363.106 767.081 361.879 765.458 361.958 765.34 361.958 765.221 361.998 765.142 361.998 764.39 361.206 763.36 360.771 762.292 360.771 760.154 360.771 758.412 362.513 758.452 364.65 758.452 364.69 758.452 364.69 758.452 364.729L758.412 365.679Z" fill="#FFBF19"/><path d="M758.017 345.373 756.473 344.779 753.979 351.112 753.267 357.96 754.81 358.198C755.206 358.277 755.562 358 755.642 357.604 755.642 357.565 755.642 357.565 755.642 357.525 755.919 352.696 757.621 348.104 758.373 346.283 758.571 345.967 758.412 345.531 758.017 345.373 758.017 345.373 758.017 345.373 758.017 345.373Z" fill="#FFBF19"/><path d="M747.369 347.471C746.854 347.273 746.3 347.55 746.102 348.025 745.904 348.54 746.181 349.094 746.656 349.292 747.171 349.49 747.725 349.252 747.923 348.737 748.16 348.263 747.883 347.669 747.369 347.471 747.369 347.471 747.369 347.471 747.369 347.471Z" fill="#FFBF19"/><path d="M744.004 339.871C743.648 339.712 743.213 339.91 743.054 340.267 743.054 340.267 743.054 340.267 743.054 340.267L738.621 351.667C738.463 352.023 738.66 352.458 739.017 352.577 739.017 352.577 739.017 352.577 739.017 352.577L750.575 357.129 755.562 344.423 744.004 339.871ZM748.952 350.202C748.635 350.044 748.279 349.846 748.002 349.608 748.16 349.925 748.319 350.281 748.398 350.638 748.438 350.915 748.358 351.152 748.2 351.35 748.042 351.548 747.804 351.706 747.567 351.746 747.013 351.825 746.537 351.429 746.419 350.915 746.379 350.598 746.379 350.281 746.419 349.965 746.221 350.202 745.983 350.44 745.746 350.677 745.31 350.994 744.677 350.954 744.321 350.519 744.162 350.321 744.083 350.044 744.123 349.806 744.123 349.727 744.162 349.648 744.202 349.529 744.281 349.371 744.36 349.252 744.519 349.133 744.835 348.935 745.152 348.777 745.508 348.619 745.152 348.579 744.756 348.54 744.4 348.421 743.885 348.223 743.648 347.629 743.885 347.154 744.083 346.679 744.638 346.442 745.112 346.6 745.469 346.758 745.746 346.956 746.062 347.194 745.904 346.877 745.746 346.521 745.667 346.165 745.627 346.006 745.667 345.808 745.706 345.65 745.746 345.571 745.785 345.492 745.825 345.413 745.983 345.215 746.221 345.056 746.498 345.017 747.052 344.938 747.527 345.333 747.646 345.848 747.685 346.165 747.685 346.481 747.646 346.798 747.844 346.56 748.081 346.323 748.319 346.085 748.754 345.769 749.388 345.808 749.704 346.244 749.862 346.442 749.942 346.719 749.902 346.956 749.862 347.233 749.744 347.471 749.546 347.629 749.229 347.827 748.912 347.985 748.556 348.144 748.912 348.183 749.308 348.223 749.665 348.342 750.14 348.54 750.377 349.094 750.219 349.569 750.021 350.123 749.467 350.4 748.952 350.202Z" fill="#FFBF19"/><path d="M749.298 363.775C749.781 364.504 749.876 365.291 749.512 365.532 749.147 365.774 748.46 365.378 747.978 364.649 747.495 363.919 747.4 363.133 747.764 362.891 748.129 362.65 748.816 363.046 749.298 363.775Z" fill="#FFBF19"/><path d="M754.276 366.308C754.529 366.665 754.154 367.364 753.44 367.868 752.726 368.373 751.942 368.493 751.69 368.135 751.438 367.778 751.812 367.08 752.526 366.575 753.241 366.071 754.024 365.951 754.276 366.308Z" fill="#FFBF19"/><path d="M752.648 359.234C753.027 359.452 752.98 360.243 752.544 361.001 752.108 361.759 751.447 362.196 751.068 361.978 750.689 361.76 750.736 360.969 751.172 360.211 751.608 359.453 752.269 359.016 752.648 359.234Z" fill="#FFBF19"/></g></svg>