<svg width="38" height="38" xmlns="http://www.w3.org/2000/svg" xmlns:xlink="http://www.w3.org/1999/xlink" xml:space="preserve" overflow="hidden"><g transform="translate(-733 -456)"><path d="M748.556 487.469C747.448 487.469 746.577 486.598 746.577 485.49 746.577 484.381 747.448 483.51 748.556 483.51 749.665 483.51 750.535 484.381 750.535 485.49 750.535 486.598 749.625 487.469 748.556 487.469ZM748.556 479.75C745.39 479.75 742.817 482.323 742.817 485.49 742.817 488.656 745.39 491.229 748.556 491.229 751.723 491.229 754.296 488.656 754.296 485.49 754.296 482.323 751.723 479.75 748.556 479.75Z" fill="#7F7F7F"/><path d="M755.77 484.188 751.832 474.679 763.9 469.68 767.839 479.189Z" fill="#7F7F7F"/><path d="M749.031 478.206C750.06 478.285 751.05 478.562 751.921 479.038L744.717 461.304C744.717 461.265 744.677 461.225 744.677 461.185L742.46 462.096C742.46 462.135 742.5 462.175 742.5 462.215L743.41 464.471 740.165 465.817C739.571 466.054 739.254 466.767 739.531 467.36 739.729 467.835 740.165 468.112 740.64 468.112 740.798 468.112 740.956 468.073 741.075 468.033L744.321 466.688 749.031 478.206Z" fill="#7F7F7F"/><path d="M764.39 482.481C764.231 482.481 764.073 482.521 763.915 482.56L755.879 485.885C755.8 486.915 755.562 487.904 755.088 488.775L755.088 488.815 764.746 484.777C765.221 484.619 765.577 484.183 765.577 483.669 765.577 483.035 765.023 482.481 764.39 482.481Z" fill="#7F7F7F"/></g></svg>