<svg width="38" height="39" xmlns="http://www.w3.org/2000/svg" xmlns:xlink="http://www.w3.org/1999/xlink" xml:space="preserve" overflow="hidden"><g transform="translate(-733 -400)"><path d="M29.1452 29.925C27.1455 31.291 24.7862 32.0347 22.3646 32.0625 16.5894 32.0625 13.8185 27.4946 12.9635 22.5625L24.1458 22.5625 24.1458 20.1875 12.6904 20.1875C12.6667 19.7917 12.6667 19.3958 12.6667 19 12.6667 18.6042 12.6667 18.2083 12.6983 17.8125L24.1458 17.8125 24.1458 15.4375 12.9635 15.4375C13.8185 10.5054 16.5894 5.9375 22.3646 5.9375 24.786 5.96667 27.1448 6.71029 29.1452 8.075L30.4475 6.09583C28.0615 4.47367 25.2496 3.59236 22.3646 3.5625 16.1223 3.5625 11.6533 8.21354 10.5608 15.4375L7.52083 15.4375 7.52083 17.8125 10.3313 17.8125C10.3115 18.2083 10.2996 18.6042 10.2996 19 10.2996 19.3958 10.2996 19.7917 10.3313 20.1875L7.52083 20.1875 7.52083 22.5625 10.5608 22.5625C11.6533 29.7865 16.1025 34.4375 22.3646 34.4375 25.2504 34.4053 28.0624 33.5212 30.4475 31.8963Z" fill="#A5C7AF" transform="matrix(1 0 0 1.02632 733 400)"/></g></svg>